<?xml version="1.0" encoding="UTF-8"?>
<svg width="201px" height="70px" viewBox="0 0 201 70" version="1.1" xmlns="http://www.w3.org/2000/svg" xmlns:xlink="http://www.w3.org/1999/xlink">
    <!-- Generator: Sketch 56 (81588) - https://sketch.com -->
    <title>LogoAsociacionDrupalColombia-1-EnCurvas-svg</title>
    <desc>Created with Sketch.</desc>
    <defs>
        <radialGradient cx="74.1791473%" cy="40.5199456%" fx="74.1791473%" fy="40.5199456%" r="54.7139173%" gradientTransform="translate(0.741791,0.405199),scale(0.913788,1.000000),translate(-0.741791,-0.405199)" id="radialGradient-1">
            <stop stop-color="#FFE777" offset="0%"></stop>
            <stop stop-color="#FFCE0A" offset="100%"></stop>
        </radialGradient>
        <radialGradient cx="69.5229225%" cy="-0.0355554288%" fx="69.5229225%" fy="-0.0355554288%" r="72.0279853%" gradientTransform="translate(0.695229,-0.000356),scale(0.694172,1.000000),translate(-0.695229,0.000356)" id="radialGradient-2">
            <stop stop-color="#75C8FF" offset="0%"></stop>
            <stop stop-color="#0091EE" stop-opacity="0.99608" offset="100%"></stop>
        </radialGradient>
        <linearGradient x1="-0.0405054816%" y1="49.949053%" x2="99.9697381%" y2="49.949053%" id="linearGradient-3">
            <stop stop-color="#FF0606" offset="0%"></stop>
            <stop stop-color="#FF2121" offset="100%"></stop>
        </linearGradient>
    </defs>
    <g id="SitioFInal" stroke="none" stroke-width="1" fill="none" fill-rule="evenodd">
        <g id="Home" transform="translate(-79.000000, -6.000000)" fill-rule="nonzero">
            <g id="LogoAsociacionDrupalColombia-1-EnCurvas-svg" transform="translate(79.000000, 6.000000)">
                <circle id="Oval" fill="#E2E2E2" cx="35" cy="35" r="35"></circle>
                <circle id="Oval" fill="#F2F2F2" cx="36" cy="33" r="30"></circle>
                <g id="Group" transform="translate(18.000000, 12.000000)">
                    <path d="M17.3921717,0.0194064554 C17.3921717,0.0194064554 16.4148281,2.52477984 15.0358661,4.20926017 C13.6569842,5.89391515 11.6866404,7.75520769 9.13608091,10.1286172 C6.58552139,12.5020267 0.929104864,17.3480126 0.929104864,24.2256604 C0.929104864,33.026876 8.29952626,40.1620475 17.3913698,40.1620475 L17.3924323,40.1620475 C26.4840754,40.1620475 33.8542964,33.026876 33.8546973,24.2256604 C33.8546973,17.3480126 28.1988822,12.5020267 25.6483227,10.1286172 C23.0977631,7.75520769 21.1275597,5.89393456 19.7485375,4.20926017 C18.3695755,2.52462459 17.3916305,0.0194064554 17.3916305,0.0194064554 L17.3921717,0.0194064554 Z" id="Path" fill="#1A83B0"></path>
                    <path d="M26.1125474,9.08222111 C24.0953627,17.3437812 17.1903968,24.0083001 8.04052108,26.5249372 C12.6185402,30.2416124 18.7547061,32.8687552 25.5885229,34.0379524 C29.8922151,31.5566516 33.2407834,28.370004 35.3326907,24.7649658 C35.3407095,24.5582676 35.3507329,24.3516859 35.3507329,24.1431636 C35.3507329,17.2655158 29.6943164,12.4195298 27.1437568,10.0461203 C26.7799267,9.70755532 26.4546266,9.40091392 26.1144518,9.08222111 L26.1125474,9.08222111 Z" id="Path" fill="url(#radialGradient-1)"></path>
                    <path d="M8.23076559,26.5286245 L8.2167328,26.6592299 C12.7748079,30.307628 18.8433293,32.8871397 25.5913295,34.0445506 C26.458019,33.5445577 27.2881305,33.0146792 28.078541,32.4569084 C27.2193134,32.3408578 26.3548736,32.2243221 25.3459562,32.0790065 C14.8343953,30.5652448 8.2319684,26.5283722 8.2319684,26.5283722 L8.23076559,26.5286245 Z" id="Path" fill-opacity="0.17647" fill="#000000"></path>
                    <path d="M1.05399668,19.0959521 C0.5497585,20.4734417 0.239032472,21.9653906 0.239032472,23.5695282 C0.239333174,32.3707438 7.60965433,39.5055271 16.7012975,39.5059152 L16.7026807,39.5059152 C21.9537501,39.5059152 26.6266686,37.1226084 29.6409116,33.4161695 C16.9973692,32.7608718 5.9515601,27.2278391 1.05411696,19.0959521 L1.05399668,19.0959521 Z" id="Path" fill="url(#radialGradient-2)"></path>
                    <path d="M24.7092685,32.8939224 C24.6202605,32.9599238 22.5859072,34.4598293 19.3994619,35.9403672 C16.2681454,37.3953468 12.3453796,38.7403306 12.0384625,38.8451254 C12.0984025,38.8625912 12.1591445,38.8779223 12.219285,38.8946119 L19.9297008,39.1885809 C20.3628328,39.1053272 20.7901513,39.0067424 21.2102729,38.8913516 L29.017515,33.370021 C27.5565413,33.2751234 26.1181404,33.1156218 24.7094489,32.8939224 L24.7092685,32.8939224 Z" id="Path" fill-opacity="0.076923" fill="#000000"></path>
                    <path d="M34.5121735,25.9658373 C29.9840339,32.7362037 21.0878211,37.6013618 10.5582038,39.0657768 C12.8156785,40.1927485 15.3748582,40.8329481 18.0898018,40.8329481 L18.0908643,40.8329481 C26.8110394,40.832657 33.9431039,34.2679383 34.5121735,25.9658373 L34.5121735,25.9658373 Z" id="Path" fill="url(#linearGradient-3)"></path>
                    <path d="M34.5095266,25.9251458 C34.504753,25.9982619 34.4948345,26.0698891 34.4887879,26.1427485 C34.4956831,26.1329928 34.5036922,26.1237506 34.5105343,26.1134815 L34.5095266,25.9251458 Z M34.5095796,25.9251458 C34.5095796,25.9251458 32.0065192,28.8167759 29.9638454,30.372753 C27.9211716,31.9287814 24.7945207,32.8628092 24.7945207,32.8628092 C25.5056801,32.9747426 26.2249546,33.0696293 26.9503287,33.1496257 C30.1128989,31.1007926 32.6792596,28.6481387 34.5095796,25.9252998 L34.5095796,25.9251458 Z" id="Shape" fill-opacity="0.20362" fill="#000000"></path>
                </g>
                <g id="Group" transform="translate(82.000000, 12.000000)">
                    <g transform="translate(12.864656, 30.906449)" fill="#535353">
                        <path d="M0.426569244,7.94918307 C0.426569244,6.80465373 0.631229666,5.76745585 1.04055051,4.83758943 C1.45691938,3.90049967 2.02149265,3.10288921 2.73427033,2.44475805 C3.447048,1.78665335 4.28334891,1.27877035 5.24317307,0.92110907 C6.20295808,0.556290591 7.23334084,0.373881352 8.33432137,0.373881352 C9.08943943,0.373881352 9.74223054,0.434671202 10.2926947,0.556250903 C10.8431589,0.677830603 11.340691,0.849510666 11.7852912,1.07129109 L11.7852912,4.37616867 L11.7641471,4.39760057 C11.6300648,4.19014776 11.4430506,3.99700935 11.2031043,3.81818532 C10.9631581,3.63934806 10.687926,3.48555437 10.3774081,3.35680425 C10.0739382,3.22808058 9.74224359,3.12793277 9.38232422,3.05636083 C9.02241789,2.98478888 8.65191994,2.94900291 8.27083037,2.94900291 C7.50159015,2.94900291 6.79939758,3.07060907 6.16425265,3.31382139 C5.5361688,3.54987651 4.99629626,3.88250085 4.54463503,4.31169439 C4.0929738,4.74088793 3.74363952,5.24877092 3.49663219,5.83534337 C3.24962486,6.42191581 3.12612119,7.06213414 3.12612119,7.75599835 C3.12612119,8.66447257 3.27432559,9.42986904 3.57073439,10.0521878 C3.86714319,10.6673625 4.24470222,11.1645163 4.70341148,11.5436492 C5.16919487,11.9227689 5.68084266,12.1945901 6.23835485,12.359113 C6.79588009,12.5236358 7.33575916,12.6058973 7.85799204,12.6058973 C8.24614269,12.6058973 8.63781736,12.5629673 9.03301604,12.4771075 C9.4352758,12.3841036 9.81636537,12.2517683 10.1762847,12.0801015 C10.5432652,11.9084214 10.8820144,11.7009752 11.1925323,11.4577629 C11.5030502,11.2145506 11.7641667,10.9391507 11.9758816,10.6315633 L12.0075978,10.6529952 L12.0075978,13.7110091 C11.4712558,14.161661 10.8290498,14.5193223 10.0809797,14.783993 C9.3329097,15.0486637 8.49308477,15.180999 7.56150493,15.180999 C6.46058966,15.180999 5.46903632,15.0021683 4.5868449,14.6445071 C3.70465348,14.2868458 2.95305944,13.789692 2.33206277,13.1530456 C1.71807498,12.5164125 1.24523703,11.754588 0.913548932,10.8675722 C0.58892191,9.98056952 0.426569244,9.00773347 0.426569244,7.94906401 L0.426569244,7.94918307 Z" id="Path"></path>
                        <path d="M14.2485383,8.06824916 C14.2485383,7.04533921 14.4214369,6.06893118 14.7672342,5.13902507 C15.1201055,4.20910573 15.6176442,3.39006337 16.2598502,2.681898 C16.9091042,1.97371939 17.6889557,1.4121839 18.5994045,0.997291519 C19.509788,0.575255173 20.5295335,0.364236999 21.6586408,0.364236999 C22.5831335,0.364236999 23.4688359,0.521609287 24.315748,0.836353863 C25.169682,1.15109844 25.9212761,1.61605811 26.5705301,2.23123287 C27.2197972,2.84642087 27.7349755,3.60467337 28.1160651,4.50599039 C28.5042158,5.40729418 28.6982911,6.44449206 28.6982911,7.61758403 C28.6982911,8.36867934 28.6065492,9.07685795 28.4230655,9.74211984 C28.2466299,10.4073817 27.992568,11.0189911 27.6608799,11.576948 C27.3362529,12.1348917 26.9481087,12.6391961 26.4964475,13.0898612 C26.0447732,13.5333559 25.5472345,13.9089036 25.0038315,14.2165042 C24.4604284,14.5240916 23.8817395,14.7601467 23.2677647,14.9246696 C22.65379,15.0891924 22.0221691,15.1714539 21.372902,15.1714539 C20.3778246,15.1714539 19.4462448,14.9997804 18.5781625,14.6564335 C17.7171804,14.3130734 16.9655864,13.8302274 16.3233804,13.2078954 C15.6811743,12.5855502 15.1730571,11.8380136 14.7990286,10.9652857 C14.4320481,10.0925975 14.2485383,9.12690539 14.2485383,8.06820947 L14.2485383,8.06824916 Z M16.9796498,7.95017529 C16.9796498,8.61542396 17.0996229,9.23417732 17.3395692,9.80643537 C17.5865635,10.3715495 17.9182516,10.8615527 18.3346335,11.2764451 C18.7510024,11.6913375 19.24148,12.0168112 19.8060663,12.2528663 C20.3706396,12.4817643 20.9740292,12.5962132 21.6162352,12.5962132 C22.2231489,12.5962132 22.7912527,12.4889148 23.3205466,12.2743181 C23.8569017,12.0525773 24.3191545,11.7378328 24.7073052,11.3300844 C25.1025039,10.9152052 25.4130153,10.4144794 25.6388393,9.82790696 C25.8646765,9.24133451 25.9775951,8.58322981 25.9775951,7.85359285 C25.9775951,7.20980254 25.8752681,6.59462116 25.6706142,6.00804872 C25.4659473,5.42147628 25.1660145,4.9064427 24.7708158,4.462948 C24.3826651,4.01228288 23.9063032,3.65461498 23.3417299,3.38994431 C22.7842046,3.12527363 22.1525837,2.9929383 21.4468671,2.9929383 C20.7552597,2.9929383 20.1342238,3.12885223 19.5837597,3.4006801 C19.0332955,3.66535077 18.5639881,4.02659065 18.1758375,4.48439974 C17.7876868,4.93506487 17.4912845,5.46083423 17.2866306,6.06170783 C17.0819767,6.66258144 16.9796498,7.29207059 16.9796498,7.95017529 L16.9796498,7.95017529 Z" id="Shape"></path>
                        <path d="M31.6336779,0.567085916 C31.6901927,0.581373846 31.8383971,0.595661776 32.0782911,0.609949706 C32.3252985,0.624237636 32.6181702,0.631381601 32.9569063,0.631381601 C33.1051107,0.631381601 33.2815464,0.62807421 33.4862134,0.621459428 C33.6908673,0.614844645 33.9731539,0.604128698 34.3330733,0.589311585 L34.3330733,12.3278383 L37.1595289,12.3278383 C37.2653799,12.3278383 37.3924075,12.3278383 37.5406119,12.3278383 C37.6888163,12.3212235 37.8370207,12.3140795 37.9852251,12.3064064 C38.1334295,12.2997916 38.2710423,12.2926476 38.3980635,12.2849745 C38.5250585,12.2783597 38.6203309,12.2712157 38.6838807,12.2635426 L38.6415925,13.5725948 C38.6350665,13.7371177 38.6280185,13.9016405 38.6204484,14.0661634 C38.6204484,14.2306863 38.6171854,14.3773294 38.6106595,14.5060927 C38.6106595,14.6348164 38.6106595,14.7421148 38.6106595,14.8279879 C38.6106595,14.9138478 38.6106595,14.9639217 38.6106595,14.9782096 C38.4130666,14.9639217 38.2048822,14.9496337 37.9861061,14.9353458 C37.7743912,14.928731 37.5344449,14.9215871 37.2662674,14.9139139 C37.0051509,14.9139139 36.7087487,14.9106065 36.3770606,14.9039917 C36.0453725,14.9039917 35.6642829,14.9039917 35.2337919,14.9039917 L33.4871335,14.9039917 C33.2754185,14.9039917 33.0707581,14.9039917 32.8731523,14.9039917 C32.6755464,14.9106065 32.4955867,14.9177505 32.3332732,14.9254236 C32.1709597,14.9320384 32.0298164,14.9391824 31.9098432,14.9468555 C31.7898962,14.9534703 31.6981478,14.9606143 31.6345981,14.9682874 L31.6336779,0.567085916 Z" id="Path"></path>
                        <path d="M40.6982271,8.06824916 C40.6982271,7.04533921 40.8711322,6.06893118 41.2169425,5.13902507 C41.5698008,4.20910573 42.0673329,3.39006337 42.7095389,2.681898 C43.358806,1.97371939 44.1386575,1.4121839 45.0490932,0.997291519 C45.9594767,0.575255173 46.9792222,0.364236999 48.1083296,0.364236999 C49.0328222,0.364236999 49.9185246,0.521609287 50.7654367,0.836353863 C51.6193577,1.15109844 52.3709518,1.61605811 53.0202189,2.23123287 C53.6694729,2.84642087 54.1846447,3.60467337 54.5657343,4.50599039 C54.9538849,5.40729418 55.1479603,6.44449206 55.1479603,7.61758403 C55.1479603,8.36867934 55.0562184,9.07685795 54.8727347,9.74211984 C54.696299,10.4073817 54.4422371,11.0189911 54.110549,11.576948 C53.785922,12.1348917 53.3977779,12.6391961 52.9461167,13.0898612 C52.4944554,13.5333559 51.9969168,13.9089036 51.4535006,14.2165042 C50.9100975,14.5240916 50.3314086,14.7601467 49.7174339,14.9246696 C49.1034592,15.0891924 48.4718382,15.1714539 47.8225711,15.1714539 C46.8275068,15.1714539 45.895927,14.9997804 45.0278316,14.6564335 C44.1668496,14.3130734 43.4152555,13.8302274 42.7730495,13.2078954 C42.1308435,12.5855502 41.6227263,11.8380136 41.2486978,10.9652857 C40.8817173,10.0925975 40.6982271,9.12690539 40.6982271,8.06820947 L40.6982271,8.06824916 Z M43.4293385,7.95017529 C43.4293385,8.61542396 43.5493117,9.23417732 43.7892579,9.80643537 C44.0362522,10.3715495 44.3679403,10.8615527 44.7843222,11.2764451 C45.2006911,11.6913375 45.6911687,12.0168112 46.255755,12.2528663 C46.8203283,12.4817643 47.4237179,12.5962132 48.0659239,12.5962132 C48.6728507,12.5962132 49.2409545,12.4889148 49.7702354,12.2743181 C50.3065904,12.0525773 50.7688433,11.7378328 51.1569939,11.3300844 C51.5521926,10.9152052 51.8627105,10.4144794 52.0885477,9.82790696 C52.3143718,9.24133451 52.4272838,8.58322981 52.4272838,7.85359285 C52.4272838,7.20980254 52.3249568,6.59462116 52.120303,6.00804872 C51.915636,5.42147628 51.6157032,4.9064427 51.2205045,4.462948 C50.8323539,4.01228288 50.3559919,3.65461498 49.7914186,3.38994431 C49.2338934,3.12527363 48.6022725,2.9929383 47.8965559,2.9929383 C47.2049484,2.9929383 46.5839126,3.12885223 46.0334484,3.4006801 C45.4829843,3.66535077 45.0136769,4.02659065 44.6255262,4.48439974 C44.2373886,4.93506487 43.9409863,5.46083423 43.7363194,6.06170783 C43.5316655,6.66258144 43.4293385,7.29207059 43.4293385,7.95017529 Z" id="Shape"></path>
                        <path d="M58.1029445,0.586930264 C58.3287686,0.601218194 58.5228374,0.611934141 58.6851509,0.619078106 C58.8545255,0.625692888 59.0062605,0.62900028 59.1403558,0.62900028 C59.5426155,0.62900028 59.8813582,0.621856315 60.1565837,0.607568385 C60.4388704,0.593280455 60.6364762,0.57184856 60.7494013,0.5432727 L64.3063069,6.67001645 L67.7255802,0.5432727 C67.7820949,0.55756063 67.8738368,0.57184856 68.0008057,0.58613649 C68.1348879,0.592751272 68.2830858,0.599895237 68.4453993,0.607568385 C68.6077259,0.614183167 68.7771005,0.621327132 68.9535231,0.62900028 C69.1299588,0.62900028 69.2922788,0.62900028 69.4404832,0.62900028 C69.6874775,0.62900028 69.8921314,0.625692888 70.0544449,0.619078106 C70.2238195,0.612463324 70.4214254,0.601747376 70.6472625,0.586930264 L70.6472625,14.9006579 L69.8004026,14.9006579 C69.5886746,14.9006579 69.3840141,14.9006579 69.1864213,14.9006579 C68.9888155,14.9072727 68.8088558,14.9144166 68.6465423,14.9220898 C68.4842288,14.9287046 68.3430854,14.9358485 68.2231123,14.9435217 C68.1031653,14.9501365 68.0114169,14.9572804 67.9478672,14.9649536 L67.9478672,5.16859314 L64.3803895,11.6279282 L60.8023399,5.68355395 L60.8023399,14.9649536 C60.7387771,14.9583388 60.6470352,14.9511948 60.5271143,14.9435217 C60.4071673,14.9369069 60.266024,14.9297629 60.1036844,14.9220898 C59.9413578,14.915475 59.7613981,14.908331 59.5638053,14.9006579 C59.3661994,14.9006579 59.161539,14.9006579 58.949824,14.9006579 L58.1029445,14.9006579 L58.1029445,0.586930264 Z" id="Path"></path>
                        <path d="M74.4504184,0.705996347 C75.0856025,0.591560611 75.6748765,0.509292563 76.2182796,0.459192201 C76.7687437,0.401908185 77.2768675,0.373266177 77.7426509,0.373266177 C78.6459734,0.373266177 79.4187115,0.473413983 80.0608653,0.673709594 C80.7101324,0.873991975 81.2394264,1.13508405 81.6487472,1.45698582 C82.0651161,1.77888759 82.3685729,2.14727805 82.5591177,2.56215721 C82.7567236,2.96990562 82.8555265,3.384798 82.8555265,3.80683435 C82.8555265,4.22172673 82.7743697,4.62946192 82.6120562,5.03003991 C82.4497297,5.42347394 82.2062529,5.78114184 81.8816259,6.10304361 C82.3121169,6.28902483 82.696737,6.52507996 83.0354862,6.81120898 C83.3812834,7.09733801 83.6706311,7.41923978 83.9035293,7.7769143 C84.1364145,8.13457558 84.3128437,8.52085241 84.4328168,8.9357448 C84.5598118,9.34347998 84.6233094,9.76194435 84.6233094,10.1911379 C84.6233094,10.9422332 84.4680504,11.6254079 84.1575325,12.2406621 C83.8470146,12.8486796 83.3988839,13.3708638 82.8131404,13.8072145 C82.227397,14.2435653 81.5111083,14.5833468 80.6642745,14.8265591 C79.8174146,15.0626142 78.8576427,15.1806418 77.7849587,15.1806418 C77.5450124,15.1806418 77.2768349,15.1699258 76.9804261,15.148494 C76.6840303,15.1270621 76.3840975,15.09842 76.0806276,15.0625679 C75.7842319,15.0339921 75.4913602,14.9982061 75.2020125,14.95521 C74.9197258,14.9194902 74.6691945,14.8837042 74.4504184,14.8478521 L74.4504184,0.705996347 Z M77.1498529,5.53452291 C77.2697999,5.56309877 77.3933036,5.58453066 77.5203639,5.59881859 C77.6544461,5.60543337 77.7814738,5.60874077 77.9014469,5.60874077 C78.2895976,5.60874077 78.6212922,5.56581083 78.8965308,5.47995095 C79.1788175,5.38694711 79.4046481,5.27249153 79.5740227,5.13658421 C79.7504453,4.9935197 79.877473,4.83972601 79.9551057,4.67520314 C80.0398126,4.50352308 80.082166,4.33542161 80.082166,4.17089875 C80.082166,3.75600636 79.8845667,3.43053261 79.489368,3.19447749 C79.1012173,2.95842236 78.5789845,2.8403948 77.9226693,2.8403948 C77.6050903,2.8403948 77.3474979,2.85111075 77.149892,2.87254264 L77.1498529,5.53452291 Z M77.1498529,12.4661534 C77.6438676,12.5877331 78.1308211,12.6485229 78.6107136,12.6485229 C79.1470556,12.6485229 79.6198871,12.5877331 80.0292079,12.4661534 C80.4455768,12.3445737 80.7949111,12.1729002 81.0772107,11.951133 C81.3594974,11.7222219 81.5712124,11.4539726 81.7123557,11.1463852 C81.8605601,10.8316407 81.9346623,10.4847019 81.9346623,10.1055691 C81.9346623,9.81229607 81.8605601,9.53331762 81.7123557,9.26863372 C81.5641513,8.99681908 81.3453752,8.75718536 81.0560275,8.54973255 C80.7666798,8.34229298 80.4102909,8.17777011 79.986861,8.05616395 C79.563431,7.93458425 79.076484,7.8737944 78.5260198,7.8737944 C78.2578423,7.8737944 78.0073109,7.89165431 77.7744258,7.92737414 C77.5415406,7.95595 77.3333496,7.99530795 77.1498529,8.045448 L77.1498529,12.4661534 Z" id="Shape"></path>
                        <path d="M87.4305787,0.586930264 C87.6070013,0.593545046 87.7516752,0.600689011 87.8646003,0.608362159 C87.9845473,0.614976941 88.0939353,0.622120906 88.1927643,0.629794053 C88.2986153,0.629794053 88.4044728,0.629794053 88.5103368,0.629794053 C88.6232358,0.629794053 88.753794,0.629794053 88.9020115,0.629794053 C89.1348967,0.629794053 89.3677818,0.622650089 89.600667,0.608362159 C89.8406132,0.594074229 90.0170424,0.572642334 90.1299544,0.544066474 L90.1299544,14.965152 C90.0663916,14.9585372 89.9746498,14.9513933 89.8547289,14.9437201 C89.7347819,14.9371053 89.5936385,14.9299614 89.4312989,14.9222882 C89.2689854,14.9156735 89.0890257,14.9085295 88.8914199,14.9008563 C88.693814,14.9008563 88.4891536,14.9008563 88.2774386,14.9008563 L87.4305787,14.9008563 L87.4305787,0.586930264 Z" id="Path"></path>
                        <path d="M96.9258407,1.81727979 C97.0457878,1.47391967 97.126951,1.22355015 97.1693306,1.06617125 C97.2116188,0.901648381 97.2327629,0.780042221 97.2327629,0.701352769 C97.2327629,0.65848898 97.2294999,0.629846972 97.2229739,0.615426746 L97.2327629,0.593994851 C97.5362197,0.608282781 97.8043907,0.618998729 98.0372758,0.626142694 C98.2701741,0.626142694 98.4889501,0.626142694 98.693604,0.626142694 C98.8982579,0.626142694 99.1276191,0.626142694 99.3816875,0.626142694 C99.6428039,0.619527911 99.92156,0.612383946 100.217956,0.604710799 L100.227745,0.626142694 C100.213649,0.669138779 100.206601,0.697780787 100.206601,0.712068717 C100.206601,0.783640663 100.227745,0.901668225 100.270033,1.0661514 C100.312321,1.22353031 100.397008,1.4774718 100.524095,1.82797589 L105.224152,14.9292139 C105.083008,14.9225991 104.917164,14.9154552 104.726619,14.907782 C104.536075,14.907782 104.352591,14.9044746 104.176168,14.8978598 C103.999733,14.8978598 103.840943,14.8978598 103.6998,14.8978598 C103.565718,14.8978598 103.484561,14.8978598 103.45633,14.8978598 L102.058999,14.8978598 L101.063935,11.8076981 L96.2791057,11.8076981 L95.2840218,14.9837859 C94.9029323,14.948066 94.5218427,14.9230622 94.1407531,14.9087742 C93.7667246,14.9021595 93.4385671,14.8988521 93.1562804,14.8988521 L92.3199926,14.8988521 L96.9258407,1.81727979 Z M100.239198,9.23172323 L98.6407438,4.24225902 L97.0846172,9.23172323 L100.239198,9.23172323 Z" id="Shape"></path>
                    </g>
                    <g transform="translate(4.379063, 23.162397) rotate(-90.000000) translate(-4.379063, -23.162397) translate(-18.120937, 19.162397)" fill="#AFAFAF">
                        <path d="M2.00823222,2.34163297 C2.05078144,2.21992097 2.07956089,2.13117044 2.09457059,2.07538136 C2.10958028,2.01703898 2.11708512,1.9739106 2.11708512,1.94599622 C2.11708512,1.93078222 2.11577993,1.9206616 2.11316955,1.91563437 L2.11708512,1.90769663 C2.22463283,1.91298846 2.3196964,1.91695732 2.40227581,1.91960324 C2.48476386,1.91960324 2.56231829,1.91960324 2.6349391,1.91960324 C2.7075077,1.91960324 2.78880802,1.91960324 2.87884008,1.91960324 C2.97137809,1.91695732 3.07019408,1.91431141 3.17528803,1.9116655 L3.1792036,1.91960324 C3.17398284,1.93481724 3.17137246,1.94493785 3.17137246,1.94996509 C3.17137246,1.97536585 3.1788773,2.01723743 3.193887,2.07557981 C3.20889669,2.13140857 3.23891607,2.22142253 3.28394515,2.34562168 L4.95006019,6.98979426 C4.90007138,6.98714835 4.84127255,6.98450243 4.77366367,6.98185652 C4.70618531,6.98185652 4.64112156,6.98053356 4.57847241,6.97788765 C4.51595377,6.97788765 4.45970006,6.97788765 4.40971125,6.97788765 C4.36220231,6.97788765 4.33342286,6.97788765 4.32337289,6.97788765 L3.82805304,6.97788765 L3.47531873,5.88245984 L1.77919084,5.88245984 L1.42645654,7.00830903 C1.29135625,6.99507947 1.15626249,6.98621566 1.02117526,6.98171761 C0.888593993,6.9790717 0.772268875,6.97774874 0.672199907,6.97774874 L0.375751952,6.97774874 L2.00823222,2.34163297 Z M3.18274719,4.96981831 L2.61612477,3.20115118 L2.06451857,4.96981831 L3.18274719,4.96981831 Z" id="Shape"></path>
                        <path d="M5.51266915,5.23890766 L5.52833143,5.22700105 C5.59332993,5.37153405 5.68088865,5.50085966 5.79100758,5.61497788 C5.90103515,5.72914903 6.02861754,5.82676999 6.17375474,5.90784076 C6.32135875,5.98642438 6.48146649,6.04728037 6.65407796,6.09040875 C6.82919539,6.13353714 7.01306412,6.15510133 7.20568416,6.15510133 C7.35828705,6.15510133 7.50213212,6.14240094 7.63721935,6.11700018 C7.77481255,6.09159942 7.89364363,6.05230761 7.9937126,5.99912476 C8.09630059,5.94329599 8.17635445,5.87356296 8.23387421,5.78992565 C8.29391298,5.70366889 8.32393236,5.60097439 8.32393236,5.48184216 C8.32393236,5.3955854 8.30644281,5.31698194 8.2714637,5.24603178 C8.23896445,5.17498902 8.18395066,5.11287621 8.10642234,5.05969336 C8.02889401,5.0038646 7.92632561,4.9582226 7.79871712,4.92276737 C7.67106947,4.88731213 7.5134677,4.86065456 7.3259118,4.84279465 C6.98818066,4.81236665 6.70424296,4.75660403 6.47409869,4.6755068 C6.24394137,4.59189595 6.05756667,4.48793141 5.91497459,4.36361319 C5.77238251,4.23687396 5.6698141,4.09107093 5.60726937,3.92620409 C5.5472306,3.7588501 5.51721121,3.57627549 5.51721121,3.37848027 C5.51721121,3.1553372 5.56224029,2.94867817 5.65229844,2.75850317 C5.7423566,2.56832818 5.86869253,2.40350764 6.03130623,2.26404157 C6.19641285,2.1245755 6.39153886,2.01553743 6.61668425,1.93692735 C6.84182963,1.85834374 7.08949609,1.81905193 7.35968361,1.81905193 C7.52479023,1.81905193 7.67488715,1.82791574 7.80997438,1.84564336 C7.94756758,1.86337097 8.07390351,1.88870559 8.18898217,1.92164721 C8.30657985,1.95458882 8.41540012,1.99513744 8.51544299,2.04329305 C8.61555111,2.08893505 8.71061467,2.13967043 8.80063367,2.1954992 L8.72937026,3.31374801 L8.70313593,3.32168574 C8.64309716,3.23040175 8.56554273,3.14799479 8.47047264,3.07446487 C8.37545476,3.00090849 8.26788748,2.93879568 8.14777078,2.88812645 C8.02769324,2.83745721 7.89760489,2.79942221 7.75750572,2.77402145 C7.61991252,2.74610707 7.47606746,2.73214988 7.32597053,2.73214988 C7.1908833,2.73214988 7.07079923,2.74610707 6.96571833,2.77402145 C6.86065048,2.80193583 6.77059233,2.83997083 6.69554386,2.88812645 C6.62297526,2.93376845 6.56672155,2.98953106 6.52678271,3.05541429 C6.48919322,3.11878391 6.47039848,3.18725352 6.47039848,3.26082313 C6.47039848,3.34959351 6.4866481,3.42819697 6.51914735,3.49663351 C6.55164659,3.56251674 6.6092055,3.62211593 6.69182407,3.67543108 C6.7769225,3.72610031 6.89074818,3.77174231 7.0333011,3.81235707 C7.17839915,3.85032592 7.36227441,3.88452435 7.58492688,3.91495235 C7.89013267,3.9530535 8.15030285,4.01265268 8.36543743,4.09374992 C8.58058505,4.17484715 8.75570249,4.27754826 8.89078972,4.40185325 C9.02838292,4.52356525 9.12845189,4.66683482 9.19099662,4.83166197 C9.25351526,4.99647589 9.28477457,5.18284738 9.28477457,5.39077645 C9.28477457,5.59109852 9.25599512,5.77240309 9.19843621,5.93469016 C9.1408773,6.09443716 9.06207642,6.23643669 8.96203355,6.36068876 C8.86453581,6.48491438 8.74821069,6.59141237 8.6130582,6.68018275 C8.47797096,6.76895313 8.33287292,6.84248967 8.17776406,6.90079236 C8.02516117,6.95913474 7.86505343,7.00094017 7.69744085,7.02620864 C7.53233423,7.05412302 7.36847407,7.06808021 7.20586036,7.06808021 C6.83311096,7.06808021 6.50414418,7.02495183 6.21896002,6.93869506 C5.93377586,6.84992468 5.68486295,6.73201619 5.47222129,6.58496958 L5.51266915,5.23890766 Z" id="Path"></path>
                        <path d="M9.95680419,4.54435551 C9.95680419,4.18174637 10.018122,3.83562126 10.1406795,3.5059802 C10.2657167,3.17633913 10.4420871,2.88599649 10.6697907,2.63495227 C10.899935,2.38392127 11.1763678,2.18486924 11.4990893,2.03779617 C11.8217977,1.88819625 12.1832898,1.81339629 12.5835657,1.81339629 C12.9112729,1.81339629 13.22523,1.86915891 13.5254369,1.98068414 C13.8281367,2.09220937 14.0945653,2.2570299 14.3247226,2.47514574 C14.5548669,2.69322188 14.7374892,2.96200695 14.8725895,3.28150094 C15.0101696,3.60100816 15.0789597,3.96869084 15.0789597,4.38454898 C15.0789597,4.65079397 15.0464604,4.90182496 14.9814619,5.13764196 C14.9189433,5.37347218 14.8288851,5.59027829 14.7112875,5.78806028 C14.5961697,5.98584227 14.4585765,6.16461338 14.2985079,6.32437361 C14.1384001,6.48158053 13.9620297,6.61470302 13.7693966,6.7237411 C13.5767766,6.83275271 13.3716398,6.91642971 13.1539862,6.97477209 C12.9363456,7.03311447 12.7124467,7.06228566 12.4822894,7.06228566 C12.1295616,7.06228566 11.7993484,7.00142966 11.4916497,6.87971766 C11.1864439,6.75800567 10.9200153,6.58684817 10.692364,6.36624518 C10.4647126,6.14564219 10.2845898,5.88066062 10.1519955,5.57130048 C10.0218679,5.26194033 9.95680419,4.91961873 9.95680419,4.54433566 L9.95680419,4.54435551 Z M10.9249881,4.50248394 C10.9249881,4.73830093 10.9675373,4.9576405 11.0526357,5.16050264 C11.140214,5.36081149 11.2577921,5.53450244 11.40537,5.68157551 C11.5529741,5.82864859 11.7268385,5.94402362 11.9269634,6.02770062 C12.1271013,6.10879785 12.340996,6.14934647 12.5686473,6.14934647 C12.783795,6.14934647 12.9851793,6.11131147 13.1728005,6.03524147 C13.3629276,5.95665785 13.5267878,5.84508632 13.664381,5.70052687 C13.8044671,5.55345379 13.9145404,5.37595272 13.9946008,5.16802365 C14.0746089,4.96009458 14.114613,4.72680444 14.114613,4.46815322 C14.114613,4.23994322 14.0783287,4.02187369 14.0057601,3.81394462 C13.9331915,3.60601555 13.8268707,3.42344756 13.6867976,3.26624064 C13.5492044,3.10648041 13.3803389,2.97969488 13.1802009,2.88588404 C12.982569,2.79208642 12.75867,2.74518761 12.5085041,2.74518761 C12.2633371,2.74518761 12.0431906,2.79334323 11.8480646,2.88965446 C11.6529386,2.98345208 11.486579,3.11150765 11.3489858,3.27382118 C11.2113926,3.43356817 11.1063248,3.61994628 11.0337823,3.83295551 C10.9612137,4.0459515 10.9249294,4.26909457 10.9249294,4.50238471 L10.9249881,4.50248394 Z" id="Shape"></path>
                        <path d="M15.8302013,4.50466681 C15.8302013,4.09895575 15.9027503,3.73127307 16.0478484,3.40161878 C16.1954393,3.06945086 16.3955708,2.78672183 16.6482426,2.55343169 C16.9009145,2.32014154 17.1973624,2.14010701 17.5375865,2.01332809 C17.8778105,1.88394295 18.2430551,1.81925037 18.6333201,1.81925037 C18.9009886,1.81925037 19.1323924,1.84081456 19.3275315,1.88394295 C19.5226575,1.92707133 19.6990214,1.98792732 19.8566231,2.06651094 L19.8566231,3.23802198 L19.848792,3.24595972 C19.8012831,3.17240334 19.7349859,3.10394034 19.6499005,3.04057072 C19.5648021,2.97720111 19.4672391,2.9226953 19.3572115,2.8770533 C19.2496638,2.8314113 19.1320857,2.79588992 19.0044772,2.77048916 C18.8769601,2.74508839 18.7456188,2.73238801 18.6104532,2.73238801 C18.3377728,2.73238801 18.0888599,2.77551639 17.8637145,2.86177315 C17.641062,2.9455163 17.4496884,3.06343141 17.2895937,3.21551849 C17.129486,3.36765848 17.0056495,3.54769301 16.9180843,3.75562208 C16.830506,3.96355115 16.7867168,4.19049772 16.7867168,4.43646179 C16.7867168,4.75849586 16.8392507,5.02981439 16.9443186,5.25041738 C17.0493864,5.46849353 17.1832272,5.64472456 17.3458409,5.77911048 C17.5109475,5.91350963 17.6923168,6.00986716 17.8899488,6.06818309 C18.0875808,6.12652547 18.2789544,6.15569666 18.4640695,6.15569666 C18.6016627,6.15569666 18.7405089,6.14048266 18.8806081,6.11005466 C19.0232002,6.07711304 19.1582874,6.03021423 19.2858698,5.96935824 C19.4159973,5.90850224 19.5360814,5.8349657 19.646122,5.74874863 C19.7561496,5.66249187 19.8487072,5.56486429 19.9237948,5.45586591 L19.9355415,5.46380365 L19.9355415,6.54782096 C19.7454144,6.70756795 19.517763,6.83435349 19.2525874,6.92817756 C18.9874118,7.02197517 18.6897174,7.06887398 18.3595042,7.06887398 C17.9692391,7.06887398 17.6177513,7.00550437 17.3050407,6.87876514 C16.99233,6.7520259 16.7259015,6.57579487 16.505755,6.35007204 C16.2881144,6.12438889 16.1205084,5.85433379 16.0029368,5.53990672 C15.887819,5.22547965 15.8302601,4.88062459 15.8302601,4.50534152 L15.8302013,4.50466681 Z" id="Path"></path>
                        <path d="M21.0574899,1.90505733 C21.1200085,1.90770324 21.1713025,1.91034916 21.2113719,1.91299507 C21.2539211,1.91564098 21.2926853,1.9182869 21.3276644,1.92093281 C21.3652539,1.92093281 21.4027781,1.92093281 21.4402371,1.92093281 C21.4803064,1.92093281 21.5265754,1.92093281 21.5790441,1.92093281 C21.6616627,1.92093281 21.744216,1.9182869 21.826704,1.91299507 C21.9118025,1.90770324 21.9743211,1.90009624 22.0142599,1.89017407 L22.0142599,7.00207791 C21.9916801,6.999432 21.9591809,6.99678608 21.9167622,6.99414017 C21.874213,6.99149426 21.8241589,6.98884834 21.7666,6.98620243 C21.7090411,6.98355652 21.6452173,6.98091061 21.5751285,6.97826469 C21.5050398,6.97826469 21.4324908,6.97826469 21.3574815,6.97826469 L21.0572941,6.97826469 L21.0574899,1.90505733 Z" id="Path"></path>
                        <path d="M24.4248818,2.34163297 C24.467431,2.21992097 24.4962105,2.13117044 24.5112202,2.07538136 C24.5262299,2.01703898 24.5337347,1.9739106 24.5337347,1.94599622 C24.5337347,1.93078222 24.5324295,1.9206616 24.5298191,1.91563437 L24.5337347,1.90769663 C24.6412824,1.91298846 24.736346,1.91695732 24.8189254,1.91960324 C24.9014135,1.91960324 24.9789679,1.91960324 25.0515887,1.91960324 C25.1241573,1.91960324 25.2054576,1.91960324 25.2954897,1.91960324 C25.3880277,1.91695732 25.4868437,1.91431141 25.5919376,1.9116655 L25.5958532,1.91960324 C25.5906324,1.93481724 25.5880221,1.94493785 25.5880221,1.94996509 C25.5880221,1.97536585 25.5955269,2.01723743 25.6105366,2.07557981 C25.6255463,2.13140857 25.6555657,2.22142253 25.7005947,2.34562168 L27.3666902,6.98979426 C27.3167014,6.98714835 27.2579026,6.98450243 27.1902937,6.98185652 C27.1228153,6.98185652 27.0577516,6.98053356 26.9951024,6.97788765 C26.9325838,6.97788765 26.8762648,6.97788765 26.8261455,6.97788765 C26.7786366,6.97788765 26.7498571,6.97788765 26.7398071,6.97788765 L26.2444873,6.97788765 L25.891753,5.88245984 L24.1956251,5.88245984 L23.8428908,7.00830903 C23.7078035,6.99507947 23.5727098,6.98621566 23.4376095,6.98171761 C23.3050282,6.9790717 23.1887031,6.97774874 23.0886341,6.97774874 L22.7921862,6.97774874 L24.4248818,2.34163297 Z M25.5994164,4.96981831 L25.0327744,3.20115118 L24.4811682,4.96981831 L25.5994164,4.96981831 Z" id="Shape"></path>
                        <path d="M27.8118516,4.50466681 C27.8118516,4.09895575 27.8844006,3.73127307 28.0294987,3.40161878 C28.1771027,3.06945086 28.3772406,2.78672183 28.6299125,2.55343169 C28.8825713,2.32014154 29.1790192,2.14010701 29.5192563,2.01332809 C29.8594804,1.88394295 30.2247184,1.81925037 30.6149704,1.81925037 C30.882652,1.81925037 31.1140557,1.84081456 31.3091817,1.88394295 C31.5043208,1.92707133 31.6806912,1.98792732 31.838293,2.06651094 L31.838293,3.23802198 L31.8304618,3.24595972 C31.7829529,3.17240334 31.7166623,3.10394034 31.6315899,3.04057072 C31.5464915,2.97720111 31.4489285,2.9226953 31.3389009,2.8770533 C31.2313532,2.8314113 31.1137751,2.79588992 30.9861666,2.77048916 C30.858519,2.74508839 30.7271777,2.73238801 30.5921426,2.73238801 C30.3194622,2.73238801 30.0705493,2.77551639 29.8454039,2.86177315 C29.6227514,2.9455163 29.4313713,3.06343141 29.2712636,3.21551849 C29.1111558,3.36765848 28.9873259,3.54769301 28.8997737,3.75562208 C28.8121954,3.96355115 28.7684062,4.19049772 28.7684062,4.43646179 C28.7684062,4.75849586 28.8209402,5.02981439 28.926008,5.25041738 C29.0310759,5.46849353 29.1649101,5.64472456 29.3275108,5.77911048 C29.4926304,5.91350963 29.6740063,6.00986716 29.8716382,6.06818309 C30.0692571,6.12652547 30.2606307,6.15569666 30.445759,6.15569666 C30.5833522,6.15569666 30.7221918,6.14048266 30.8622779,6.11005466 C31.0048831,6.07711304 31.1399768,6.03021423 31.2675592,5.96935824 C31.3976867,5.90850224 31.5177643,5.8349657 31.6277918,5.74874863 C31.7378194,5.66249187 31.8303835,5.56486429 31.9054842,5.45586591 L31.9172309,5.46380365 L31.9172309,6.54782096 C31.7271038,6.70756795 31.4994524,6.83435349 31.2342769,6.92817756 C30.9691013,7.02197517 30.6714003,7.06887398 30.341174,7.06887398 C29.950922,7.06887398 29.5994407,7.00550437 29.2867301,6.87876514 C28.9740195,6.7520259 28.7075909,6.57579487 28.4874444,6.35007204 C28.2698038,6.12438889 28.1021912,5.85433379 27.9846066,5.53990672 C27.8694888,5.22547965 27.8119299,4.88062459 27.8119299,4.50534152 L27.8118516,4.50466681 Z" id="Path"></path>
                        <path d="M33.0195623,1.90505733 C33.082081,1.90770324 33.1333749,1.91034916 33.1734443,1.91299507 C33.2159935,1.91564098 33.2547577,1.9182869 33.2897368,1.92093281 C33.3273263,1.92093281 33.3648505,1.92093281 33.4023095,1.92093281 C33.4423788,1.92093281 33.4886478,1.92093281 33.5411165,1.92093281 C33.6237351,1.92093281 33.7062884,1.9182869 33.7887764,1.91299507 C33.8738749,1.90770324 33.9363935,1.90009624 33.9763323,1.89017407 L33.9763323,7.00207791 C33.9538831,6.999432 33.9213838,6.99678608 33.8788346,6.99414017 C33.8362854,6.99149426 33.7862313,6.98884834 33.7286724,6.98620243 C33.6711135,6.98355652 33.6073549,6.98091061 33.5373967,6.97826469 C33.467308,6.97826469 33.394759,6.97826469 33.3197496,6.97826469 L33.0195427,6.97826469 L33.0195623,1.90505733 Z" id="Path"></path>
                        <path d="M37.5812037,0.297665208 C37.7213028,0.297665208 37.8438864,0.296342252 37.9489542,0.293696339 C38.054022,0.291050426 38.1515851,0.287081556 38.2416432,0.28178973 C38.3317014,0.273851991 38.4192601,0.266244992 38.5043194,0.258968731 C38.5894178,0.251030992 38.6819819,0.242167184 38.7820117,0.232377306 L38.7780961,0.258968731 L37.7949352,1.48751242 L36.946881,1.48751242 L37.5812037,0.297665208 Z M35.0595557,4.56142165 C35.0595557,4.19881251 35.120854,3.8526874 35.2434114,3.52304634 C35.3684487,3.19340527 35.5448126,2.90306263 35.7725031,2.6520184 C36.0026604,2.40098741 36.2790933,2.20193538 36.6018017,2.05486231 C36.9245231,1.90526239 37.2860152,1.83046243 37.6862781,1.83046243 C38.0139984,1.83046243 38.3279555,1.88622505 38.6281493,1.99775028 C38.9308491,2.10927551 39.1972777,2.27409604 39.427435,2.49221188 C39.6575923,2.71028802 39.8402146,2.97907309 39.9753019,3.29856708 C40.1128951,3.6180743 40.1816917,3.98575698 40.1816917,4.40161512 C40.1816917,4.66786011 40.1491924,4.9188911 40.0841939,5.1547081 C40.0216753,5.39053832 39.9316171,5.60734443 39.8140194,5.80512642 C39.6989016,6.00290841 39.5613084,6.18167952 39.4012398,6.34143975 C39.2411321,6.49864666 39.0647682,6.63176916 38.8721482,6.74080723 C38.6795151,6.84981885 38.4743783,6.93349585 38.2567377,6.99183823 C38.0390841,7.05018061 37.8151852,7.0793518 37.5850409,7.0793518 C37.2323001,7.0793518 36.9020803,7.0184958 36.5943817,6.8967838 C36.2891759,6.77507181 36.0227473,6.60391431 35.7950959,6.38331132 C35.5674446,6.16270833 35.3873283,5.89772676 35.254747,5.58836661 C35.1246195,5.27900647 35.0595557,4.93668487 35.0595557,4.5614018 L35.0595557,4.56142165 Z M36.0277201,4.51955007 C36.0277201,4.75536707 36.0702693,4.97470664 36.1553677,5.17756878 C36.242946,5.37787762 36.3605241,5.55156858 36.508102,5.69864165 C36.655706,5.84571472 36.829577,5.96108976 37.0297149,6.04476676 C37.2298398,6.12586399 37.4437279,6.1664126 37.6713793,6.1664126 C37.8865269,6.1664126 38.0879113,6.12837761 38.2755325,6.05230761 C38.4656596,5.97372399 38.6295198,5.86215246 38.767113,5.717593 C38.9071991,5.57051993 39.0172723,5.39301886 39.0973327,5.18508979 C39.1773409,4.97716072 39.217345,4.74387058 39.217345,4.48521935 C39.217345,4.25700936 39.1810607,4.03893983 39.1084921,3.83101076 C39.0359235,3.62308169 38.9296027,3.4405137 38.7895296,3.28330678 C38.6519364,3.12354655 38.4830708,2.99676102 38.2829329,2.90295017 C38.085314,2.80915256 37.8614151,2.76225375 37.6112361,2.76225375 C37.3660822,2.76225375 37.1459422,2.81040937 36.9508162,2.9067206 C36.7556771,3.00051821 36.589311,3.12857379 36.4517178,3.29088732 C36.3141246,3.45063431 36.2090567,3.63701242 36.1365142,3.85002164 C36.0639456,4.06301764 36.0276613,4.28616071 36.0276613,4.51945085 L36.0277201,4.51955007 Z" id="Shape"></path>
                        <path d="M41.163952,6.98521021 C41.1717832,6.94208183 41.177004,6.90027641 41.1796143,6.85979394 C41.1848351,6.81666556 41.1874455,6.76467337 41.1874455,6.70381737 L41.1874455,1.92648923 L42.0130047,1.92648923 C42.1431322,2.17499337 42.274467,2.41842398 42.4070091,2.65678105 C42.5396034,2.89513812 42.6771966,3.13729869 42.8197887,3.38326275 C42.9623808,3.62668675 43.1124777,3.88025781 43.2700795,4.14397596 C43.4276813,4.40515403 43.5965468,4.68281613 43.7766762,4.97696228 L43.7766762,2.18506107 C43.7766762,2.045595 43.7641464,1.95937792 43.7390867,1.92640985 L44.7522605,1.92640985 C44.7470398,1.96702461 44.741819,2.01518023 44.7365982,2.0708767 C44.7339879,2.12419184 44.7326827,2.18756146 44.7326827,2.26098554 L44.7326827,6.98513084 L43.9146414,6.98513084 C43.7770482,6.76959477 43.6519587,6.57560966 43.5393729,6.40317551 C43.4293454,6.22821452 43.3255305,6.06593406 43.2279283,5.91633414 C43.1329105,5.76672099 43.0415993,5.62345142 42.9539949,5.48652542 C42.8688965,5.34705935 42.7838372,5.20632324 42.6988171,5.06431709 C42.6137187,4.92232417 42.52616,4.77271764 42.436141,4.61549749 C42.3460828,4.4557505 42.2485198,4.27951947 42.143452,4.0868044 L42.143452,6.9850713 L41.163952,6.98521021 Z" id="Path"></path>
                    </g>
                    <g transform="translate(12.864656, 0.441176)" fill="#1A83B0">
                        <path d="M0.426569244,0.432375562 C1.11065883,0.349558487 1.79477451,0.28744568 2.4789163,0.246037142 C3.16301893,0.204628604 3.82670838,0.183924335 4.46998465,0.183924335 C6.36916758,0.183924335 8.04875218,0.442661549 9.50873846,0.960135976 C10.9688552,1.47759717 12.194103,2.20204814 13.1844817,3.13348888 C14.1748864,4.06494285 14.9253711,5.17232357 15.4359355,6.45563105 C15.9464478,7.73895175 16.201704,9.14644515 16.201704,10.6781112 C16.201704,12.4581492 15.9004986,14.0312767 15.2980878,15.3974939 C14.7058837,16.7532597 13.8890301,17.8916637 12.8475271,18.812706 C11.8162829,19.733788 10.6012809,20.4323752 9.20252115,20.9084676 C7.81392881,21.3741879 6.32829554,21.6070481 4.74562134,21.6070481 C4.42909955,21.6070481 4.08705476,21.596729 3.71948697,21.5760909 C3.36212577,21.5554528 2.99455145,21.529589 2.61676401,21.4984995 C2.23897657,21.4674101 1.86119566,21.4260015 1.48342128,21.3742739 C1.11584043,21.3225463 0.763582525,21.265593 0.426569244,21.2034141 L0.426569244,0.432375562 Z M4.33196074,17.7882416 C4.79142701,17.8502883 5.26620969,17.8813116 5.75630878,17.8813116 C6.63438885,17.8813116 7.46651316,17.7467736 8.2526817,17.4776974 C9.04908294,17.2086081 9.74337911,16.8049807 10.3355702,16.2668152 C10.9277613,15.7286497 11.3974407,15.0610859 11.7446084,14.2641237 C12.091763,13.4568821 12.2653403,12.5254546 12.2653403,11.4698412 C12.2653403,10.3107196 12.091763,9.2654517 11.7446084,8.33403742 C11.4076603,7.40259668 10.9175613,6.61087337 10.2743111,5.9588675 C9.63106093,5.29651611 8.84996957,4.78940043 7.93103704,4.43752047 C7.0121045,4.0856405 5.97578312,3.90970052 4.82207288,3.90970052 C4.74036795,3.90970052 4.65868259,3.90970052 4.57701681,3.90970052 C4.49531188,3.90970052 4.41363304,3.91499235 4.33196074,3.925576 L4.33196074,17.7882416 Z" id="Shape"></path>
                        <path d="M20.3372528,0.452219909 C20.9702963,0.359083773 21.6135465,0.291811436 22.2670033,0.250402898 C22.9306797,0.1986753 23.6862545,0.172811501 24.5337279,0.172811501 C25.9428117,0.172811501 27.1986662,0.338405963 28.3012913,0.669594889 C29.4142143,0.990425065 30.3484697,1.4457933 31.1040577,2.03569959 C31.8596195,2.61526037 32.4365072,3.31384754 32.8347209,4.1314611 C33.2329215,4.94906144 33.4320218,5.84946562 33.4320218,6.83267364 C33.4320218,7.83655948 33.207392,8.75766793 32.7581323,9.59599899 C32.3088726,10.4343036 31.6502734,11.1484355 30.7823347,11.7383947 L33.9680441,18.7863131 C34.2947724,19.5211228 34.565345,20.0799925 34.7797617,20.4629223 C34.9941784,20.8354933 35.1932853,21.0942239 35.3770822,21.2391141 L35.3005328,21.3167055 C35.0452767,21.2752969 34.7951238,21.2442736 34.5500743,21.2236355 C34.3050247,21.2130518 34.0599752,21.20776 33.8149256,21.20776 C33.4269316,21.20776 32.9827817,21.2130518 32.4824761,21.2236355 C31.992377,21.2442736 31.4257023,21.2805226 30.7824522,21.3323825 L27.2905451,13.0580835 C26.9842429,13.1098111 26.6677211,13.1512196 26.3409797,13.1823091 C26.0244579,13.2030795 25.6926263,13.2134647 25.3454847,13.2134647 C25.1719074,13.2134647 24.988117,13.2081729 24.7941134,13.1975893 C24.6103295,13.1870056 24.4265456,13.1714609 24.2427617,13.150955 L24.2427617,21.2079584 L20.3372528,21.2079584 L20.3372528,0.452219909 Z M24.2426443,9.56474414 C24.5183266,9.61647174 24.7837959,9.64749507 25.039052,9.65781413 C25.2943082,9.65781413 25.5342479,9.65781413 25.7588712,9.65781413 C26.2898228,9.65781413 26.7850317,9.58536903 27.244498,9.44047884 C27.7039642,9.29557542 28.1021648,9.09893117 28.4390998,8.85054609 C28.7760478,8.60217424 29.0415171,8.31239385 29.2355076,7.98120493 C29.4295111,7.65002923 29.5265129,7.29297651 29.5265129,6.91004675 C29.5265129,6.50642596 29.4244078,6.12350282 29.2201977,5.76127734 C29.0159876,5.3886931 28.7147822,5.06786293 28.3165816,4.79878681 C27.9285875,4.51935194 27.4435917,4.30201665 26.8615942,4.14678094 C26.2796097,3.98118648 25.61083,3.89838924 24.8552551,3.89838924 C24.7428782,3.89838924 24.6356698,3.89838924 24.53363,3.89838924 C24.4315641,3.89838924 24.3345688,3.90368107 24.2426443,3.91426472 L24.2426443,9.56474414 Z" id="Shape"></path>
                        <path d="M38.4857919,0.491908604 C39.0066608,0.522998081 39.3997647,0.54370235 39.6652405,0.55402141 C39.9307032,0.564605062 40.1349068,0.569896888 40.2778513,0.569896888 C40.6147993,0.569896888 40.8904817,0.569896888 41.1048984,0.569896888 C41.3295217,0.559313236 41.5184154,0.548928028 41.6715795,0.538741263 C41.8247306,0.528157611 41.957462,0.517838551 42.0697736,0.507784082 C42.192331,0.48714596 42.3148558,0.466441692 42.437348,0.445671275 L42.437348,13.842987 C42.437348,14.5260426 42.5292399,15.1211283 42.7130238,15.628244 C42.8968207,16.1353596 43.1520834,16.5545119 43.4788118,16.8857009 C43.8055402,17.2168766 44.1884309,17.465255 44.627484,17.6308363 C45.066524,17.7964307 45.54641,17.879228 46.0671419,17.879228 C46.5266082,17.879228 46.9503383,17.7964307 47.3383324,17.6308363 C47.736533,17.465255 48.0734745,17.1961723 48.3491568,16.8235881 C48.6350458,16.4406715 48.8545723,15.943908 49.0077365,15.3332974 C49.1710941,14.7226736 49.252773,13.9671332 49.252773,13.0666761 L49.252773,0.492107047 C49.4978225,0.512877464 49.7122392,0.528422203 49.8960231,0.538741263 C50.0900267,0.549324915 50.2687138,0.559710123 50.4320845,0.569896888 C50.6056618,0.569896888 50.7741293,0.569896888 50.937487,0.569896888 C51.1110643,0.569896888 51.3050613,0.569896888 51.519478,0.569896888 C51.907472,0.569896888 52.2239938,0.55951168 52.4690434,0.538741263 C52.7242995,0.518103142 52.9693491,0.487079813 53.204192,0.445671275 L53.204192,13.2839717 C53.204192,14.5983422 53.0306147,15.7729952 52.6834601,16.8079309 C52.3363055,17.832521 51.8513162,18.7018357 51.2284923,19.415875 C50.6056553,20.1299804 49.8551707,20.6733187 48.9770384,21.0458897 C48.1091519,21.4184739 47.1544701,21.604766 46.1129933,21.604766 C45.0102638,21.604766 43.9892131,21.4546964 43.0498413,21.1545573 C42.1206891,20.8440859 41.3191715,20.36802 40.6452885,19.7263596 C39.9714056,19.0743405 39.440467,18.2463682 39.052473,17.2424427 C38.6746856,16.2385569 38.4857919,15.03804 38.4857919,13.6408921 L38.4857919,0.491908604 Z" id="Path"></path>
                        <path d="M58.6902803,0.452219909 C59.9461478,0.265921178 61.1969121,0.172771812 62.442573,0.172771812 C63.8209848,0.172771812 65.071749,0.353884554 66.1948656,0.716110038 C67.3180083,1.07834875 68.2777802,1.60099594 69.0741815,2.2840516 C69.8705957,2.95676174 70.4832196,3.78473405 70.9120531,4.76796854 C71.3408865,5.74080459 71.5553032,6.84302578 71.5553032,8.07463211 C71.5553032,8.88188693 71.4378883,9.63736122 71.2030584,10.341055 C70.978422,11.0448149 70.6670035,11.6864753 70.2688029,12.2660361 C69.8706023,12.8352513 69.4009229,13.3475464 68.8597647,13.8029212 C68.3288262,14.2479505 67.7519385,14.6257009 67.1291015,14.9361724 C66.5062776,15.246657 65.8579241,15.4846966 65.1840411,15.650291 C64.5101451,15.8055267 63.8362751,15.8831446 63.1624313,15.8831446 C63.0705459,15.8831446 62.9786539,15.8831446 62.8867555,15.8831446 C62.79487,15.872561 62.6978748,15.8622419 62.5957697,15.8521874 L62.5957697,21.2079783 L58.6902803,21.2079783 L58.6902803,0.452219909 Z M62.5956718,12.1417311 C62.6568853,12.1625015 62.7130737,12.1728867 62.7642372,12.1728867 C62.8254506,12.1728867 62.8918131,12.1728867 62.9633245,12.1728867 C63.5555286,12.1728867 64.1324164,12.0952622 64.6939877,11.9400133 C65.255559,11.7847776 65.7507614,11.5519174 66.1795949,11.2414327 C66.618648,10.9206026 66.9709059,10.5221545 67.2363686,10.0460886 C67.5018444,9.57000951 67.6345823,9.00596701 67.6345823,8.35396114 C67.6345823,7.70195527 67.5222706,7.1068696 67.2976473,6.56870414 C67.0832306,6.02017992 66.7820187,5.54928018 66.3940116,5.1560049 C66.0060176,4.76272963 65.541448,4.45742435 65.0003029,4.24008906 C64.4591578,4.02275377 63.8618503,3.91408612 63.2083805,3.91408612 C63.0960036,3.91408612 62.9887953,3.91408612 62.8867555,3.91408612 C62.7846895,3.91408612 62.6876943,3.91937795 62.5957697,3.9299616 L62.5956718,12.1417311 Z" id="Shape"></path>
                        <path d="M79.9322583,2.2977442 C80.1058356,1.80097404 80.2232571,1.43874194 80.2845228,1.2110479 C80.3457362,0.973021572 80.3763429,0.797088205 80.3763429,0.683247799 C80.3763429,0.621201141 80.3711222,0.579792603 80.3606806,0.559022186 L80.3763429,0.528065004 C80.815396,0.548703125 81.2033901,0.564247864 81.540325,0.57469922 C81.877273,0.57469922 82.1937948,0.57469922 82.4898904,0.57469922 C82.785999,0.57469922 83.1178372,0.57469922 83.485405,0.57469922 C83.8631924,0.564115568 84.2665029,0.55373036 84.6953363,0.543543595 L84.7109986,0.57469922 C84.6906376,0.636745879 84.6804571,0.678154417 84.6804571,0.698924834 C84.6804571,0.80238003 84.7110638,0.973140638 84.7722773,1.21120666 C84.8334907,1.4389007 84.9560155,1.80630556 85.1398516,2.31342123 L91.9400255,21.2683448 C91.7358284,21.2577611 91.4958887,21.2474421 91.2202063,21.2373876 C90.9445239,21.2373876 90.6790547,21.2320958 90.4237985,21.2215121 C90.1685293,21.2215121 89.9387962,21.2215121 89.7345991,21.2215121 C89.5405956,21.2215121 89.4231741,21.2215121 89.3823347,21.2215121 L87.3607249,21.2215121 L85.9210474,16.7505807 L78.9983161,16.7505807 L77.5586582,21.3457377 C77.0072934,21.2940101 76.4559352,21.2577611 75.9045835,21.2369907 C75.3634254,21.2264071 74.8886427,21.2211152 74.4802355,21.2211152 L73.2703042,21.2211152 L79.9322583,2.2977442 Z M84.7260931,13.0248045 L82.4133605,5.80622478 L80.1619066,13.0248045 L84.7260931,13.0248045 Z" id="Shape"></path>
                        <path d="M95.0267883,0.472064257 C95.1084933,0.492702378 95.32291,0.513406647 95.6700385,0.534177063 C96.0273997,0.55494748 96.4511298,0.565332688 96.9412289,0.565332688 C97.1556457,0.565332688 97.4109083,0.560040862 97.7070169,0.549457211 C98.0031125,0.538873559 98.4115262,0.52332882 98.9322581,0.502822995 L98.9322581,17.4862107 L103.021486,17.4862107 C103.17465,17.4862107 103.35844,17.4862107 103.572857,17.4862107 C103.787274,17.475627 104.00169,17.4652418 104.216107,17.455055 C104.430524,17.4444714 104.629624,17.4341523 104.813408,17.4240979 C104.997205,17.4135142 105.135046,17.403129 105.226932,17.3929422 L105.165653,19.2868867 C105.155211,19.5249131 105.144966,19.762946 105.134916,20.0009856 C105.134916,20.2390251 105.129695,20.4511876 105.119253,20.6374731 C105.119253,20.8237587 105.119253,20.9789944 105.119253,21.1031803 C105.119253,21.2274059 105.119253,21.2998576 105.119253,21.3205354 C104.833364,21.2998973 104.532159,21.279193 104.215637,21.2584226 C103.909322,21.247839 103.562167,21.2375199 103.174173,21.2274654 C102.796386,21.2274654 102.367553,21.2221736 101.887673,21.21159 C101.407781,21.21159 100.856422,21.21159 100.233598,21.21159 L97.7064883,21.21159 C97.4001731,21.21159 97.1040711,21.21159 96.8181821,21.21159 C96.5322931,21.2221736 96.2719272,21.2325588 96.0370842,21.2427456 C95.8022413,21.2533292 95.5980311,21.2636483 95.4244538,21.2737028 C95.2508765,21.2842864 95.1181452,21.2946055 95.0262597,21.3046599 L95.0267883,0.472064257 Z" id="Path"></path>
                    </g>
                </g>
            </g>
        </g>
    </g>
</svg>